<?xml version="1.0" encoding="UTF-8" standalone="no"?>
<svg
   xmlns:osb="http://www.openswatchbook.org/uri/2009/osb"
   xmlns:dc="http://purl.org/dc/elements/1.1/"
   xmlns:cc="http://creativecommons.org/ns#"
   xmlns:rdf="http://www.w3.org/1999/02/22-rdf-syntax-ns#"
   xmlns:svg="http://www.w3.org/2000/svg"
   xmlns="http://www.w3.org/2000/svg"
   xmlns:xlink="http://www.w3.org/1999/xlink"
   xmlns:sodipodi="http://sodipodi.sourceforge.net/DTD/sodipodi-0.dtd"
   xmlns:inkscape="http://www.inkscape.org/namespaces/inkscape"
   width="511"
   height="454"
   viewBox="-0.24 -0.512 511 454"
   xml:space="preserve"
   id="svg1335"
   sodipodi:version="0.32"
   inkscape:version="1.0.1 (3bc2e813f5, 2020-09-07)"
   sodipodi:docname="alien.svg"
   version="1.1"><metadata
   id="metadata1346"><rdf:RDF><cc:Work
       rdf:about=""><dc:format>image/svg+xml</dc:format><dc:type
         rdf:resource="http://purl.org/dc/dcmitype/StillImage" /></cc:Work></rdf:RDF></metadata><sodipodi:namedview
   inkscape:window-height="721"
   inkscape:window-width="1024"
   inkscape:pageshadow="2"
   inkscape:pageopacity="0.0"
   borderopacity="1.0"
   bordercolor="#666666"
   pagecolor="#ffffff"
   id="base"
   inkscape:zoom="0.83039648"
   inkscape:cx="204.27226"
   inkscape:cy="228.30491"
   inkscape:window-x="-4"
   inkscape:window-y="-4"
   inkscape:current-layer="svg1335"
   inkscape:document-rotation="0"
   showgrid="false"
   inkscape:window-maximized="0" />
	<defs
   id="defs1337"><linearGradient
   id="linearGradient2793"
   osb:paint="solid"><stop
     style="stop-color:#000000;stop-opacity:1;"
     offset="0"
     id="stop2791" /></linearGradient><linearGradient
   inkscape:collect="always"
   id="linearGradient2783"
   osb:paint="gradient"><stop
     style="stop-color:#000000;stop-opacity:1;"
     offset="0"
     id="stop2779" /><stop
     style="stop-color:#000000;stop-opacity:0;"
     offset="1"
     id="stop2781" /></linearGradient><linearGradient
   id="linearGradient2775"
   osb:paint="solid"><stop
     style="stop-color:#000000;stop-opacity:1;"
     offset="0"
     id="stop2773" /></linearGradient><linearGradient
   id="linearGradient851"
   osb:paint="solid"><stop
     style="stop-color:#000000;stop-opacity:1;"
     offset="0"
     id="stop849" /></linearGradient>
	
		
		
	<linearGradient
   inkscape:collect="always"
   xlink:href="#linearGradient2775"
   id="linearGradient2777"
   x1="186.90921"
   y1="268.9468"
   x2="318.55169"
   y2="268.9468"
   gradientUnits="userSpaceOnUse" /><linearGradient
   inkscape:collect="always"
   xlink:href="#linearGradient2783"
   id="linearGradient2789"
   x1="51.261982"
   y1="223.48594"
   x2="458.85817"
   y2="223.48594"
   gradientUnits="userSpaceOnUse" /><linearGradient
   inkscape:collect="always"
   xlink:href="#linearGradient851"
   id="linearGradient2795"
   x1="-0.49000001"
   y1="226.44064"
   x2="510.69751"
   y2="226.44064"
   gradientUnits="userSpaceOnUse" /></defs>
	
<g
   id="g2061"><polygon
     transform="matrix(1.121652,0,0,-1.121652,-29.02209,478.9297)"
     points="52.128,47.52 255.024,398.952 457.992,47.52 52.128,47.52 "
     id="polygon1456"
     style="fill:#ffcc00;fill-opacity:1;stroke:url(#linearGradient2789);stroke-opacity:1" /><path
     id="path1341"
     d="M 254.51,-0.012 C 240.08934,0.16938134 226.70544,7.9870937 219.4475,20.58175 L 5.47875,391.113 C 1.87875,397.377 0.01000001,404.43474 0.01,411.70675 C 0.01,434.45875 18.4455,452.89425 41.1975,452.89425 L 469.01,452.89425 C 491.762,452.89425 510.19749,434.45874 510.1975,411.70675 C 510.1975,404.50675 508.235,397.377 504.635,391.113 L 290.72875,20.58175 C 283.31275,7.83775 269.76999,-0.01200002 255.01,-0.012 C 254.83872,-0.012 254.681,-0.01415077 254.51,-0.012 z M 255.01,53.9255 L 457.97875,405.363 L 52.135,405.363 L 255.01,53.9255 z "
     style="fill:#ff0000;fill-opacity:1;stroke:url(#linearGradient2795);stroke-opacity:1" /><path
     id="_51223072"
     d="M 268.96218,143.79177 L 267.3193,143.85748 L 265.67641,143.9232 L 264.03352,144.05462 L 262.39063,144.25177 L 260.74774,144.44893 L 259.10486,144.77749 L 257.52768,145.17179 L 255.88479,145.56608 L 254.30762,146.09181 L 252.79616,146.61753 L 251.21899,147.20898 L 249.70753,147.86613 L 248.26179,148.65472 L 246.81605,149.37759 L 245.37031,150.23189 L 243.92457,151.1519 L 242.54455,152.13764 L 241.23023,153.12337 L 240.37593,153.84625 L 239.58734,154.5034 L 238.73304,155.29199 L 237.94445,156.08057 L 237.15587,156.86916 L 236.43299,157.65774 L 235.71012,158.51205 L 234.98726,159.36634 L 234.26438,160.28637 L 233.60723,161.14067 L 232.95007,162.06069 L 232.29291,162.9807 L 231.70147,163.96644 L 231.17576,164.88646 L 230.58431,165.80647 L 230.1243,166.79221 L 229.59858,167.90937 L 229.07285,168.96082 L 228.61284,170.07798 L 228.15284,171.12944 L 227.75854,172.18088 L 227.42997,173.16661 L 227.10139,174.21806 L 226.83853,175.26951 L 226.57567,176.32096 L 226.37852,177.3724 L 226.18138,178.48957 L 226.04994,179.60673 L 225.85279,180.78961 L 225.78708,181.97249 L 225.72137,183.22109 L 225.65565,184.46969 L 225.58994,186.50686 L 225.58994,188.28118 L 225.65565,189.92407 L 225.78708,191.43553 L 226.04994,192.94698 L 226.37852,194.45844 L 226.77281,196.16704 L 227.36425,198.00709 L 228.34999,201.29285 L 228.81,202.60717 L 229.20429,203.65862 L 229.59858,204.71007 L 230.05859,205.76152 L 230.58431,206.87868 L 231.24146,208.12728 L 232.16149,209.83588 L 233.08151,211.54449 L 234.06724,213.25309 L 235.05298,214.89597 L 236.03871,216.53886 L 237.09015,218.18175 L 238.20732,219.75892 L 239.25877,221.33609 L 240.44164,222.91327 L 241.55881,224.42473 L 242.74169,225.87047 L 243.92457,227.38193 L 245.17316,228.82767 L 246.42176,230.20769 L 247.73607,231.58772 L 249.05037,232.90202 L 251.15328,235.00493 L 253.12475,236.84496 L 255.0305,238.48785 L 256.80481,239.9336 L 257.65911,240.59075 L 258.4477,241.18219 L 259.23629,241.70791 L 259.95916,242.16792 L 260.68202,242.62793 L 261.33918,242.95651 L 261.99634,243.28508 L 262.58778,243.48223 L 263.17922,243.67938 L 263.63923,243.87652 L 263.90209,244.13939 L 263.96781,244.2051 L 264.03352,244.27082 L 263.96781,244.40225 L 263.83637,244.5994 L 263.31065,245.12512 L 262.58778,245.91371 L 261.60204,246.83373 L 260.61631,247.75374 L 259.63057,248.60804 L 258.77628,249.39663 L 258.05341,249.92235 L 257.65911,250.18521 L 257.26482,250.38236 L 256.87052,250.57951 L 256.41051,250.71094 L 255.9505,250.90809 L 255.42478,251.03952 L 254.11048,251.23666 L 252.66474,251.49953 L 251.21899,251.63095 L 249.83897,251.76239 L 248.45894,251.8281 L 247.14463,251.89382 L 245.83031,251.89382 L 244.51602,251.8281 L 243.26741,251.76239 L 241.9531,251.63095 L 240.7045,251.43381 L 239.52163,251.23666 L 238.27304,250.90809 L 237.09015,250.64522 L 235.90727,250.25093 L 234.72439,249.85664 L 233.54152,249.39663 L 232.49006,248.93662 L 231.50433,248.47661 L 230.5186,248.0166 L 229.59858,247.49088 L 228.74428,246.89944 L 227.9557,246.308 L 227.16711,245.65084 L 226.37852,244.86226 L 225.58994,244.07367 L 224.80134,243.21936 L 224.01277,242.23363 L 223.28989,241.18219 L 222.43559,239.99931 L 221.58128,238.75071 L 220.72698,237.37069 L 219.80697,235.79352 L 219.0841,234.61063 L 218.42694,233.42775 L 217.83551,232.31059 L 217.24406,231.12771 L 216.65262,229.8134 L 215.99546,228.36766 L 214.48401,224.81902 L 213.30113,221.92753 L 212.97255,221.00752 L 212.70968,220.21893 L 212.57826,219.49607 L 212.51254,218.83891 L 212.51254,218.05031 L 212.51254,217.1303 L 212.51254,216.34171 L 212.51254,215.61885 L 212.57826,214.96169 L 212.70968,214.30454 L 212.84112,213.64738 L 213.03827,212.9245 L 213.56399,211.2159 L 214.024,209.83588 L 214.41829,208.45585 L 214.74687,207.20726 L 214.94401,206.28724 L 215.14117,205.36722 L 215.14117,205.03864 L 215.14117,204.77578 L 215.14117,204.51291 L 215.07545,204.31577 L 214.94401,204.0529 L 214.74687,203.85576 L 214.41829,203.46147 L 213.82685,202.93575 L 213.1697,202.41002 L 212.44683,201.8843 L 211.59253,201.29285 L 210.93538,200.76714 L 210.67251,200.50428 L 210.40965,200.24141 L 210.27822,199.97855 L 210.08107,199.71569 L 209.94964,199.45283 L 209.88393,199.12424 L 209.81821,198.79567 L 209.75249,198.46709 L 209.75249,197.6785 L 209.75249,196.69277 L 209.81821,196.10132 L 209.94964,195.44417 L 210.2125,193.73557 L 210.60679,191.76411 L 211.0668,189.72692 L 211.78967,186.96687 L 212.31539,184.53539 L 212.51254,183.48395 L 212.70968,182.49822 L 212.7754,181.64392 L 212.84112,180.78961 L 212.90683,180.06674 L 212.90683,179.40959 L 212.90683,178.81815 L 212.7754,178.29242 L 212.70968,177.7667 L 212.57826,177.30669 L 212.38111,176.9124 L 212.11825,176.58382 L 211.72395,176.1238 L 211.32967,175.79524 L 210.86966,175.53237 L 210.34393,175.33523 L 209.81821,175.2038 L 209.29248,175.13808 L 208.76676,175.13808 L 208.24104,175.26951 L 207.71532,175.46665 L 207.18959,175.66379 L 206.66387,175.99238 L 206.13814,176.38667 L 205.67813,176.84668 L 205.28384,177.3724 L 204.88954,177.89813 L 204.56096,178.55529 L 204.42953,178.94958 L 204.23239,179.40959 L 204.16667,179.86959 L 204.10095,180.39531 L 204.03525,181.11819 L 203.96952,181.97249 L 203.96952,184.40397 L 203.9038,190.51551 L 203.83809,194.45844 L 203.77238,195.70704 L 203.70666,196.49563 L 203.64095,196.95563 L 203.64095,197.08706 L 203.57523,197.15278 L 203.50952,197.02135 L 203.37808,196.69277 L 202.91808,195.57561 L 202.32664,193.93271 L 201.66948,191.96125 L 201.14375,190.38408 L 200.61803,188.93834 L 200.09231,187.62403 L 199.63229,186.37544 L 199.10658,185.19255 L 198.58085,184.14111 L 198.05513,183.15538 L 197.59512,182.23536 L 197.06939,181.44677 L 196.54367,180.7239 L 196.01794,180.13246 L 195.49221,179.54102 L 194.90078,179.0153 L 194.37506,178.621 L 193.78361,178.29242 L 193.19218,177.96385 L 192.40359,177.70098 L 191.615,177.50384 L 191.28642,177.43812 L 190.89214,177.43812 L 190.49784,177.43812 L 190.16926,177.43812 L 189.84069,177.50384 L 189.5121,177.50384 L 189.24924,177.63526 L 188.92067,177.7667 L 188.6578,177.89813 L 188.39494,178.02956 L 188.19779,178.22671 L 188.00065,178.42386 L 187.8035,178.68671 L 187.60635,178.88386 L 187.54063,179.14672 L 187.40921,179.40959 L 187.40921,179.67245 L 187.40921,180.00103 L 187.40921,180.85532 L 187.54063,181.44677 L 187.67207,182.03821 L 187.86922,182.76108 L 188.13208,183.48395 L 188.46066,184.20683 L 188.85495,185.06112 L 189.31496,185.91543 L 189.84069,186.83545 L 190.43213,187.75545 L 191.02356,188.8069 L 191.74643,189.92407 L 192.53502,191.04124 L 194.37506,193.53842 L 196.41223,196.23277 L 199.63229,200.43856 L 198.84372,200.70142 L 198.44942,200.76714 L 197.92369,200.83284 L 197.39797,200.83284 L 196.80653,200.76714 L 196.28081,200.70142 L 195.75508,200.70142 L 195.36079,200.76714 L 195.16365,200.83284 L 195.03222,200.96428 L 194.90078,201.03 L 194.76935,201.16143 L 194.50649,201.55572 L 194.24362,201.95001 L 194.1122,202.47574 L 193.91505,203.1329 L 193.65219,203.65862 L 193.38932,204.18435 L 193.12646,204.57863 L 192.73216,204.90721 L 192.33787,205.17007 L 191.94359,205.36722 L 191.41786,205.56436 L 190.76069,205.76152 L 190.3007,205.95866 L 190.03783,206.09009 L 189.84069,206.28724 L 189.70925,206.41867 L 189.57782,206.61582 L 189.4464,206.81297 L 189.31496,207.01011 L 189.24924,207.27298 L 189.18353,207.53583 L 189.11781,208.19298 L 189.11781,208.98158 L 189.11781,209.83588 L 189.18353,210.69018 L 189.24924,211.54449 L 189.38068,212.33307 L 189.5121,213.12165 L 189.64354,213.84453 L 189.84069,214.5674 L 190.10354,215.22456 L 190.36641,215.8817 L 190.62927,216.47315 L 190.95786,217.1303 L 191.28642,217.65602 L 191.68072,218.18175 L 192.07501,218.70747 L 192.53502,219.16748 L 192.99503,219.62749 L 193.38932,219.95608 L 193.91505,220.35036 L 194.50649,220.74466 L 195.16365,221.07323 L 196.6751,221.99325 L 198.44942,222.84755 L 199.96088,223.63614 L 201.27519,224.35901 L 202.39235,225.08188 L 203.37808,225.73904 L 203.77238,226.06761 L 204.16667,226.4619 L 204.56096,226.79049 L 204.88954,227.18478 L 205.15241,227.51335 L 205.48098,227.90766 L 205.67813,228.30195 L 205.94099,228.69623 L 206.401,229.68196 L 207.05815,231.12771 L 207.78102,232.96774 L 208.50389,234.93921 L 209.29248,236.91068 L 210.14678,238.94786 L 210.86966,240.78789 L 211.46109,242.10221 L 211.98682,243.15366 L 212.57826,244.2051 L 213.1697,245.25655 L 213.82685,246.308 L 214.48401,247.29373 L 215.20688,248.27947 L 215.92974,249.19948 L 216.65262,250.1195 L 217.4412,250.9738 L 218.2298,251.8281 L 219.01838,252.61669 L 219.87268,253.33955 L 220.66126,253.99671 L 221.44986,254.58816 L 222.30416,255.1796 L 223.09274,255.70532 L 223.94704,256.16533 L 224.80134,256.62533 L 226.7071,257.54535 L 228.61284,258.39966 L 230.65003,259.18824 L 232.68721,259.91112 L 234.72439,260.50255 L 236.56442,261.02828 L 237.48444,261.22543 L 238.33875,261.42257 L 239.58734,261.61972 L 240.57308,261.81686 L 241.36166,262.01401 L 242.08453,262.21116 L 242.61025,262.47402 L 243.07026,262.73688 L 243.53028,262.99974 L 243.92457,263.39404 L 244.31885,263.72261 L 244.64744,264.0512 L 244.97601,264.44548 L 245.23888,264.83978 L 245.50174,265.16836 L 245.69889,265.56265 L 245.83031,265.95694 L 245.96175,266.41695 L 246.09318,266.81125 L 246.1589,267.27126 L 246.1589,267.73126 L 246.1589,268.19127 L 246.1589,268.71699 L 246.02747,269.24271 L 245.96175,269.76844 L 245.83031,270.29417 L 245.17316,272.98851 L 244.84458,274.30282 L 244.58172,275.61713 L 244.38457,276.93144 L 244.12171,278.24575 L 243.92457,279.62577 L 243.79313,280.94009 L 243.66171,282.32011 L 243.53028,283.76585 L 243.33312,286.65733 L 243.2017,289.74596 L 243.2017,293.09746 L 243.2017,296.31752 L 243.2017,297.69755 L 243.26741,298.94614 L 243.33312,300.12902 L 243.46456,301.24618 L 243.66171,302.29763 L 243.85885,303.4148 L 244.12171,304.46625 L 244.45029,305.58342 L 244.77886,306.83201 L 245.23888,308.14632 L 245.7646,309.52634 L 246.35604,311.10351 L 247.8675,314.78358 L 248.65608,316.88648 L 249.37896,318.72651 L 249.97039,320.43512 L 250.49612,321.94657 L 250.89042,323.39232 L 251.28471,324.77234 L 251.61329,326.08666 L 251.81044,327.46668 L 251.94186,328.18955 L 252.07329,329.63529 L 252.46759,334.43252 L 253.51904,348.23279 L 254.50477,362.16447 L 254.83335,367.02743 L 254.89906,369.52462 L 254.83335,369.52462 L 254.57049,369.59033 L 253.65047,369.65606 L 252.27043,369.78749 L 250.56183,369.91891 L 248.78752,369.98463 L 247.0132,370.11605 L 245.30459,370.2475 L 243.66171,370.51036 L 242.01882,370.7075 L 240.37593,371.03607 L 238.60161,371.36466 L 236.82729,371.82467 L 234.59297,372.41611 L 232.55578,373.00754 L 231.63576,373.2704 L 230.71575,373.6647 L 229.86145,373.99327 L 229.00714,374.32185 L 228.21856,374.65043 L 227.42997,375.04473 L 226.7071,375.43902 L 225.98423,375.89903 L 225.32707,376.29332 L 224.66992,376.75333 L 224.01277,377.21334 L 223.42133,377.67335 L 222.63273,378.3305 L 222.36987,378.65909 L 222.0413,378.92195 L 221.84415,379.25052 L 221.647,379.51338 L 221.44986,379.84196 L 221.31842,380.23625 L 221.18699,380.56483 L 221.05557,381.02484 L 220.98985,381.48485 L 220.92413,382.07629 L 220.7927,383.32488 L 220.72698,385.03349 L 220.66126,387.46496 L 220.66126,388.31926 L 220.66126,388.9107 L 220.72698,389.37071 L 220.85842,389.76501 L 220.98985,390.15929 L 221.18699,390.55358 L 221.51557,390.94789 L 221.84415,391.34218 L 222.17272,391.67075 L 222.63273,392.06504 L 223.09274,392.32791 L 223.61847,392.59077 L 224.20991,392.78792 L 224.86706,392.98507 L 225.58994,393.18221 L 226.37852,393.31365 L 227.16711,393.37936 L 228.15284,393.44508 L 229.13857,393.51079 L 230.19002,393.51079 L 231.37291,393.51079 L 232.6215,393.51079 L 234.26438,393.44508 L 235.90727,393.31365 L 237.48444,393.1165 L 239.06162,392.91936 L 240.57308,392.59077 L 242.15025,392.2622 L 243.66171,391.8679 L 245.30459,391.4079 L 247.0132,390.81645 L 248.7218,390.22502 L 250.56183,389.43643 L 252.5333,388.64784 L 254.63619,387.72783 L 256.87052,386.67638 L 259.23629,385.4935 L 261.86491,384.2449 L 269.4879,380.4334 L 275.20516,383.52203 L 279.73954,385.88778 L 281.77671,386.93923 L 283.68246,387.85925 L 285.45678,388.71356 L 287.09968,389.50214 L 288.67684,390.15929 L 290.1883,390.81645 L 291.63403,391.34218 L 293.01407,391.80219 L 294.32838,392.2622 L 295.64269,392.65649 L 296.957,392.98507 L 298.27131,393.24792 L 299.58563,393.51079 L 300.89993,393.70794 L 302.14853,393.90509 L 303.85714,394.03651 L 305.69716,394.10223 L 307.53721,394.10223 L 309.57438,394.10223 L 310.4944,394.03651 L 311.3487,394.03651 L 312.13728,393.90509 L 312.86016,393.77365 L 313.51732,393.70794 L 314.17447,393.51079 L 314.70019,393.31365 L 315.22592,393.1165 L 315.68593,392.91936 L 316.08022,392.65649 L 316.47452,392.32791 L 316.80308,391.99934 L 317.13167,391.67075 L 317.46024,391.27646 L 317.6574,390.94789 L 317.78882,390.6193 L 317.92025,390.22502 L 317.98597,389.83072 L 318.05169,389.23929 L 318.05169,388.45069 L 318.05169,386.21637 L 318.05169,384.50777 L 317.92025,383.12773 L 317.85454,382.60201 L 317.78882,382.07629 L 317.6574,381.61628 L 317.52596,381.15626 L 317.39453,380.76198 L 317.26309,380.4334 L 317.00025,380.10482 L 316.80308,379.77625 L 316.47452,379.44766 L 316.14594,379.11909 L 315.42307,378.46193 L 314.76591,377.93621 L 314.10875,377.47619 L 313.4516,377.01619 L 312.72872,376.55619 L 312.07157,376.09618 L 311.3487,375.70189 L 310.56012,375.30758 L 309.77153,374.97901 L 308.98294,374.58472 L 308.12865,374.25613 L 307.20862,373.92757 L 306.2886,373.6647 L 304.1857,373.00754 L 301.95139,372.41611 L 300.11134,372.02181 L 298.40274,371.62751 L 296.69414,371.36466 L 294.98554,371.10179 L 293.27693,370.90465 L 291.56833,370.7075 L 289.72829,370.57606 L 287.88826,370.44464 L 283.74817,370.2475 L 283.87962,368.80176 L 284.33961,362.49306 L 285.19391,349.48138 L 285.65393,342.3841 L 286.11394,336.20685 L 286.44252,331.73819 L 286.63967,329.43815 L 286.83681,328.32099 L 287.09968,327.1381 L 287.36253,325.8895 L 287.69111,324.64092 L 288.01968,323.45803 L 288.28255,322.53802 L 288.54541,321.81514 L 288.67684,321.55228 L 288.74256,321.42086 L 289.00542,321.15799 L 289.46543,320.82942 L 290.64831,319.97511 L 291.23975,319.58081 L 291.76548,319.18652 L 292.35691,318.72651 L 292.88264,318.26651 L 293.93409,317.34649 L 294.91982,316.22933 L 295.83983,315.11216 L 296.75986,313.92928 L 297.61416,312.61497 L 298.40274,311.23494 L 299.12562,309.78921 L 299.84848,308.27775 L 300.43993,306.70057 L 301.03136,305.05769 L 301.55708,303.28336 L 302.01709,301.50904 L 302.41139,299.60329 L 302.73997,297.69755 L 302.8714,296.77752 L 302.93712,295.79179 L 303.13426,293.55746 L 303.19997,290.99456 L 303.26569,288.23451 L 303.19997,285.47445 L 303.06854,282.7144 L 302.93712,280.1515 L 302.80569,278.90291 L 302.67425,277.78574 L 302.34568,275.15712 L 301.95139,272.85707 L 301.55708,270.75417 L 301.35994,269.76844 L 301.09707,268.78272 L 300.83422,267.8627 L 300.50563,266.94267 L 300.24277,266.02265 L 299.84848,265.10265 L 299.12562,263.1969 L 298.2056,261.22543 L 297.54844,259.97684 L 296.957,258.85967 L 296.29984,257.87393 L 295.64269,257.08534 L 295.3141,256.69106 L 294.98554,256.36247 L 294.65695,256.0339 L 294.32838,255.77104 L 293.99981,255.50817 L 293.6055,255.31102 L 293.27693,255.11388 L 292.88264,254.91673 L 292.09404,254.65387 L 290.91117,254.25958 L 287.88826,253.27385 L 284.79962,252.35382 L 283.55103,252.02525 L 282.76245,251.8281 L 282.43387,251.76239 L 282.03957,251.49953 L 281.51385,251.17094 L 280.98813,250.84237 L 280.39669,250.38236 L 279.73954,249.85664 L 278.42522,248.73947 L 277.11091,247.49088 L 275.92802,246.24228 L 275.40231,245.65084 L 274.9423,245.12512 L 274.61373,244.66512 L 274.35086,244.2051 L 274.28514,244.00796 L 274.21942,243.87652 L 274.21942,243.67938 L 274.28514,243.61367 L 274.41658,243.41651 L 274.61373,243.28508 L 275.27088,242.95651 L 275.92802,242.56221 L 276.6509,242.16792 L 277.37377,241.77362 L 278.09664,241.2479 L 278.88523,240.72218 L 279.67382,240.06502 L 281.51385,238.61928 L 283.15674,237.23925 L 284.79962,235.79352 L 286.3768,234.28206 L 287.95397,232.70488 L 289.46543,231.062 L 290.97689,229.41911 L 292.42263,227.7105 L 293.86837,225.93619 L 295.3141,224.09615 L 296.69414,222.25611 L 298.07417,220.28464 L 299.45419,218.31318 L 300.70279,216.27601 L 302.01709,214.10739 L 303.33141,212.0045 L 304.51429,209.77016 L 305.30287,208.2587 L 306.02575,206.87868 L 306.61719,205.56436 L 307.20862,204.18435 L 307.80006,202.67289 L 308.32579,200.96428 L 308.98294,198.99282 L 309.77153,196.56134 L 310.88869,192.94698 L 310.88869,186.50686 L 310.88869,183.08966 L 310.82298,181.77534 L 310.75727,180.7239 L 310.69155,179.80387 L 310.56012,178.94958 L 310.42868,178.09527 L 310.23154,177.17525 L 309.96867,176.0581 L 309.70581,175.00664 L 309.37723,173.95519 L 309.04866,172.90374 L 308.65436,171.8523 L 308.32579,170.86657 L 307.93149,169.88083 L 307.47149,168.8951 L 307.0772,167.90937 L 306.55147,166.92364 L 306.09146,166.00361 L 305.56574,165.0836 L 305.04001,164.16358 L 304.51429,163.30928 L 303.92285,162.38926 L 303.33141,161.53496 L 302.73997,160.68066 L 302.08281,159.82635 L 301.42566,159.03778 L 300.7685,158.24918 L 300.04562,157.4606 L 299.32276,156.73772 L 298.59989,155.94914 L 297.8113,155.22627 L 297.02271,154.5034 L 296.23413,153.84625 L 295.37983,153.18908 L 294.59124,152.46621 L 293.73694,151.87478 L 292.81692,151.28334 L 291.96262,150.62618 L 290.97689,150.10045 L 289.59686,149.24615 L 288.08541,148.45757 L 286.57395,147.73469 L 285.06249,147.07754 L 283.55103,146.4861 L 281.97386,145.89466 L 280.39669,145.43466 L 278.7538,145.04036 L 277.17663,144.64607 L 275.53374,144.38321 L 273.89085,144.18606 L 272.24796,143.98892 L 270.60507,143.85748 L 268.96218,143.79177 z M 303.92285,180.39531 L 304.64572,180.46103 L 305.23715,180.46103 L 305.8286,180.52676 L 306.2886,180.65818 L 306.61719,180.7239 L 306.74861,180.78961 L 306.88005,180.85532 L 306.94576,180.92104 L 306.94576,181.05247 L 306.74861,182.16964 L 306.35432,184.33825 L 306.02575,185.65256 L 305.69716,186.96687 L 305.36859,188.28118 L 304.97429,189.52978 L 304.58,190.71265 L 304.11999,191.96125 L 303.65999,193.07841 L 303.13426,194.19558 L 302.60853,195.31275 L 302.08281,196.36419 L 301.49137,197.41564 L 300.83422,198.40138 L 300.17707,199.38711 L 299.45419,200.37284 L 298.73133,201.29285 L 298.00845,202.14716 L 297.21987,203.00146 L 296.43127,203.85576 L 295.57697,204.64435 L 294.65695,205.43294 L 293.73694,206.15581 L 292.81692,206.87868 L 291.8312,207.53583 L 290.77974,208.19298 L 289.72829,208.85014 L 288.67684,209.44158 L 287.55968,210.03303 L 286.3768,210.55875 L 285.19391,211.08448 L 284.01104,211.6102 L 282.76245,212.07021 L 281.44814,212.53022 L 278.68809,213.38451 L 277.63664,213.64738 L 276.91376,213.84453 L 275.86231,213.97595 L 275.66517,212.46449 L 275.59946,211.54449 L 275.53374,210.55875 L 275.46803,209.63874 L 275.46803,208.653 L 275.46803,207.73297 L 275.53374,206.81297 L 275.59946,205.89295 L 275.73088,204.97292 L 275.86231,204.0529 L 276.05947,203.19861 L 276.19089,202.27859 L 276.45375,201.35857 L 276.6509,200.50428 L 276.97948,199.64997 L 277.24234,198.72995 L 277.57092,197.94137 L 277.96521,197.08706 L 278.2938,196.23277 L 278.7538,195.44417 L 279.1481,194.65559 L 279.6081,193.867 L 280.13382,193.07841 L 280.65955,192.35555 L 281.18527,191.56697 L 281.711,190.84409 L 282.30244,190.18693 L 282.89388,189.46406 L 283.55103,188.8069 L 284.20818,188.14975 L 284.86534,187.55831 L 285.58822,186.90116 L 286.31108,186.30972 L 287.29682,185.58684 L 288.47969,184.86398 L 289.72829,184.14111 L 291.10831,183.41823 L 292.48835,182.76108 L 293.86837,182.16964 L 295.11696,181.70963 L 296.23413,181.38105 L 297.02271,181.18391 L 297.87701,180.98676 L 298.73133,180.85532 L 299.58563,180.7239 L 301.42566,180.52676 L 303.13426,180.46103 L 303.92285,180.39531 z M 230.19002,180.52676 L 230.9786,180.52676 L 232.16149,180.52676 L 233.54152,180.52676 L 234.98726,180.52676 L 236.43299,180.65818 L 237.81303,180.85532 L 239.19305,181.05247 L 240.50736,181.38105 L 241.82167,181.77534 L 243.07026,182.16964 L 244.31885,182.69537 L 245.50174,183.22109 L 246.68462,183.87824 L 247.8675,184.60111 L 248.98466,185.32399 L 250.10183,186.17829 L 251.21899,187.03259 L 252.27043,188.01832 L 253.32189,189.00405 L 254.17619,189.98979 L 254.96478,190.84409 L 255.68765,191.76411 L 256.34481,192.68412 L 256.93624,193.60414 L 257.52768,194.58987 L 258.05341,195.57561 L 258.64485,196.69277 L 258.97342,197.48136 L 259.30201,198.33566 L 259.63057,199.18996 L 259.89344,200.04426 L 260.1563,200.96428 L 260.35345,201.8843 L 260.61631,202.80431 L 260.74774,203.72434 L 260.87917,204.64435 L 261.01061,205.56436 L 261.14203,206.5501 L 261.14203,207.47012 L 261.20775,208.39014 L 261.20775,209.31015 L 261.14203,210.16445 L 261.07632,211.08448 L 260.81346,213.77881 L 260.74774,213.84453 L 260.68202,213.91024 L 260.61631,213.91024 L 260.35345,213.91024 L 259.89344,213.91024 L 259.36771,213.77881 L 258.64485,213.58166 L 256.67338,212.99022 L 255.35907,212.53022 L 254.04476,212.07021 L 252.79616,211.6102 L 251.61329,211.15018 L 250.49612,210.69018 L 249.37896,210.16445 L 248.32751,209.63874 L 247.27606,209.11301 L 246.35604,208.52157 L 245.37031,207.93012 L 244.45029,207.33869 L 243.59599,206.68153 L 242.74169,206.02437 L 241.88739,205.30151 L 241.09879,204.57863 L 240.24449,203.79005 L 239.58734,203.06718 L 238.93018,202.41002 L 238.27304,201.68715 L 237.68159,200.96428 L 237.09015,200.24141 L 236.56442,199.45283 L 236.03871,198.66424 L 235.51298,197.94137 L 235.05298,197.08706 L 234.59297,196.29849 L 234.13296,195.44417 L 233.73866,194.52416 L 233.27865,193.60414 L 232.88436,192.68412 L 232.55578,191.76411 L 232.16149,190.77837 L 231.76719,189.46406 L 231.30719,187.9526 L 230.9129,186.30972 L 230.5186,184.66683 L 230.19002,183.15538 L 229.92716,181.90677 L 229.79573,180.98676 L 229.79573,180.7239 L 229.86145,180.59247 L 229.92716,180.59247 L 230.19002,180.52676 z "
     style="fill:#118800;fill-rule:evenodd;fill-opacity:1;stroke:url(#linearGradient2777)" /></g></svg>
